<svg width="281" height="84" viewBox="0 0 281 84" fill="none" xmlns="http://www.w3.org/2000/svg">
<path fill-rule="evenodd" clip-rule="evenodd" d="M129.061 38.0001C129.06 38.0004 129.06 38.0007 129.059 38.0009L129.061 38.0059C129.061 38.0059 129.061 38.0039 129.061 38.0001ZM154.803 41.5615C146.51 35.5373 140.777 34.5689 129.061 38.0001C129.063 37.9547 129.077 37.6404 129.093 37.138C133.926 35.0248 141.88 33.7745 149.862 34.8948C143.612 33.0807 135.566 33.24 129.135 35.1081V34.1937C133.323 32.3183 139.906 31.068 146.509 31.7055C141.271 30.4135 134.567 30.8008 129.11 32.5316C129.107 32.4059 129.101 32.2809 129.095 32.1565C129.085 31.9533 129.076 31.7517 129.076 31.5509C139.966 27.0793 154.041 27.5893 164.039 34.6987C170.14 35.1695 176.496 33.2645 180.038 29.2196C193.36 14.0201 171.943 0.865257 159.473 9.36224C153.433 -1.63039 130.658 -4.23636 127.166 12.5492C118.346 5.20936 104.547 11.1543 107.254 22.5539C108.949 29.7123 119.208 32.6051 126.501 31.9187C126.501 31.9187 127.238 37.0624 127.166 44.0957C134.516 34.8948 145.75 37.138 154.803 41.5615ZM111.768 21.7209C111.768 21.7347 111.768 21.7483 111.768 21.762H111.78C111.776 21.7484 111.772 21.7347 111.768 21.7209ZM111.768 21.7209C111.839 15.6705 118.22 12.5548 125.597 15.0228C121.101 12.1153 113.576 12.1275 111.78 18.0431C111.427 19.2436 111.423 20.5188 111.768 21.7209ZM131.493 12.9929C136.317 5.25593 149.404 5.39322 155.677 11.8138C150.723 3.7605 134.706 2.44649 131.493 12.9929ZM163.566 11.549C174.024 11.3038 180.261 17.5307 176.505 26.1845C183.898 17.0428 173.325 9.01166 163.566 11.549ZM128.63 15.4077C129.29 -1.17931 153.755 0.551464 158.746 11.8334L158.734 11.8456C166.4 6.06249 180.438 10.0168 181.088 18.5187C181.661 25.9369 173.105 33.1224 165.646 32.1417C164.954 32.0511 161.891 29.8153 161.152 28.7268C164.598 26.6283 167.385 23.684 169.006 20.8549C163.627 26.0719 158.419 28.3664 154.803 27.2828C153.736 27.1381 150.679 26.5712 149.28 26.312C149.022 26.2639 148.819 26.2264 148.697 26.2041C145.413 25.6183 144.361 24.2061 144.157 20.7471C143.48 22.6659 143.443 24.4072 144.048 25.9713C137.983 25.512 134.805 22.3144 134.516 16.3785C133.416 20.7243 134.417 24.028 137.514 26.29C133.249 27.3719 129.75 26.1281 127.019 22.5588C127.292 24.9588 128.972 27.0548 130.914 28.1973C124.944 30.9969 113.882 30.0433 110.595 23.5541C109.626 21.6915 109.416 19.5288 110.009 17.516C112.463 9.43333 123.761 10.4679 128.63 15.4077ZM9.47842 81.4627C12.4185 83.1447 15.8357 83.9857 19.7303 83.9857C22.2504 83.9857 24.6176 83.6225 26.8322 82.8961C29.0467 82.1316 31.0132 81.0421 32.7313 79.6277C33.2278 79.2455 33.5714 78.8441 33.7622 78.4236C33.9532 77.9648 34.0487 77.4488 34.0487 76.8753C34.0487 76.0344 33.8196 75.3272 33.3614 74.7537C32.9032 74.1804 32.3495 73.8936 31.7004 73.8936C31.2805 73.8936 30.8795 73.9701 30.4977 74.1229C30.1159 74.2759 29.7341 74.4671 29.3523 74.6964C27.5958 75.8815 26.0113 76.7224 24.5986 77.2195C23.2241 77.7164 21.7158 77.9648 20.0739 77.9648C16.103 77.9648 13.0866 76.7224 11.0248 74.2377C9.00115 71.7529 7.98932 68.0831 7.98932 63.2281C7.98932 58.4115 9.00115 54.7608 11.0248 52.276C13.0866 49.7912 16.103 48.5488 20.0739 48.5488C21.7922 48.5488 23.3576 48.7973 24.7704 49.2943C26.1831 49.7529 27.7105 50.594 29.3523 51.8173C30.1541 52.3524 30.9368 52.62 31.7004 52.62C32.3495 52.62 32.9032 52.3333 33.3614 51.76C33.8196 51.1865 34.0487 50.4793 34.0487 49.6383C34.0487 49.0267 33.9532 48.5107 33.7622 48.0901C33.5714 47.6696 33.2278 47.2683 32.7313 46.886C31.0132 45.4715 29.0467 44.4012 26.8322 43.6748C24.6176 42.9103 22.2504 42.528 19.7303 42.528C15.8357 42.528 12.4185 43.3691 9.47842 45.0511C6.57659 46.7331 4.34293 49.1413 2.77747 52.276C1.21199 55.3724 0.42926 59.0232 0.42926 63.2281C0.42926 67.4332 1.21199 71.1031 2.77747 74.2377C4.34293 77.3723 6.57659 79.7807 9.47842 81.4627ZM66.1064 66.2672C66.1064 58.5836 62.8228 54.7417 56.2554 54.7417C54.2318 54.7417 52.4181 55.1431 50.8145 55.9459C49.2491 56.7104 47.9891 57.8381 47.0345 59.3289V45.9685C47.0345 44.9745 46.7099 44.1909 46.0608 43.6175C45.4117 43.0441 44.5526 42.7573 43.4835 42.7573C42.4144 42.7573 41.5362 43.0632 40.849 43.6748C40.1999 44.2865 39.8754 45.0892 39.8754 46.0832V80.3732C39.8754 81.4436 40.1807 82.2845 40.7916 82.8961C41.4407 83.5079 42.319 83.8136 43.4262 83.8136C44.5336 83.8136 45.4117 83.5079 46.0608 82.8961C46.7099 82.2845 47.0345 81.4436 47.0345 80.3732V67.5861C47.0345 65.4072 47.6454 63.6677 48.8672 62.368C50.1272 61.0683 51.7882 60.4184 53.85 60.4184C55.6063 60.4184 56.8855 60.8963 57.6873 61.852C58.5272 62.7695 58.9473 64.2412 58.9473 66.2672V80.3732C58.9473 81.4436 59.2718 82.2845 59.9209 82.8961C60.57 83.5079 61.4482 83.8136 62.5555 83.8136C63.6628 83.8136 64.5219 83.5079 65.1327 82.8961C65.7818 82.2845 66.1064 81.4436 66.1064 80.3732V66.2672ZM97.089 76.5313C96.7072 76.0344 96.1918 75.7859 95.5427 75.7859C95.0081 75.7859 94.168 76.0917 93.0226 76.7033C91.8389 77.2385 90.7699 77.6591 89.8153 77.9648C88.8989 78.2707 87.8298 78.4236 86.6081 78.4236C84.2025 78.4236 82.3698 77.812 81.1098 76.5887C79.8498 75.3272 79.1052 73.3776 78.8762 70.7399H95.7717C97.2227 70.7399 97.9481 69.918 97.9481 68.2741C97.9481 65.5219 97.4327 63.1327 96.4018 61.1065C95.3709 59.0805 93.9199 57.5132 92.0489 56.4045C90.1781 55.296 87.9826 54.7417 85.4626 54.7417C82.828 54.7417 80.4607 55.3533 78.3606 56.5765C76.2988 57.7999 74.6951 59.5201 73.5497 61.7373C72.4043 63.9545 71.8316 66.4967 71.8316 69.3637C71.8316 73.8745 73.1488 77.4297 75.7834 80.0292C78.4179 82.6287 81.9879 83.9284 86.4935 83.9284C87.9826 83.9284 89.548 83.7181 91.1898 83.2976C92.8318 82.8388 94.3017 82.2463 95.5999 81.52C97.0127 80.7172 97.719 79.7233 97.719 78.5383C97.719 77.6972 97.509 77.0283 97.089 76.5313ZM80.938 61.6227C82.1217 60.3993 83.6871 59.7877 85.6344 59.7877C87.5435 59.7877 89.0327 60.3993 90.1017 61.6227C91.1708 62.8077 91.7436 64.5661 91.8199 66.898H78.8762C79.1052 64.6044 79.7925 62.8459 80.938 61.6227ZM113.946 49.9824C114.747 49.0267 116.027 48.4915 117.783 48.3768L119.272 48.2621C121.143 48.0709 122.079 47.1535 122.079 45.5097C122.079 44.5923 121.754 43.9233 121.105 43.5028C120.494 43.0441 119.425 42.872 117.898 42.9868L116.408 43.1015C112.972 43.3691 110.299 44.5349 108.39 46.5992C106.519 48.6253 105.584 51.4351 105.584 55.0284V55.4297H102.72C100.582 55.4297 99.5129 56.3281 99.5129 58.1248C99.5129 59.9215 100.582 60.8199 102.72 60.8199H105.584V80.3732C105.584 81.4817 105.927 82.3228 106.615 82.8961C107.302 83.4696 108.161 83.7563 109.192 83.7563C110.223 83.7563 111.063 83.4696 111.712 82.8961C112.399 82.3228 112.743 81.4817 112.743 80.3732V60.8199H117.611C119.749 60.8199 120.819 59.9215 120.819 58.1248C120.819 56.3281 119.749 55.4297 117.611 55.4297H112.743V54.1109C112.743 52.3143 113.144 50.938 113.946 49.9824ZM132.525 81.4627C135.236 83.1064 138.424 83.9284 142.09 83.9284C145.794 83.9284 149.001 83.1064 151.712 81.4627C154.422 79.7807 156.504 77.3915 157.954 74.2951C159.406 71.1604 160.131 67.4715 160.131 63.2281C160.131 58.9849 159.406 55.3151 157.954 52.2187C156.504 49.1223 154.422 46.7521 151.712 45.1084C149.001 43.4264 145.794 42.5853 142.09 42.5853C138.387 42.5853 135.178 43.4264 132.468 45.1084C129.795 46.7521 127.733 49.1413 126.282 52.276C124.831 55.3724 124.106 59.0423 124.106 63.2855C124.106 67.4905 124.831 71.1604 126.282 74.2951C127.733 77.3915 129.814 79.7807 132.525 81.4627ZM152.686 76.1873C150.165 79.2455 146.633 80.7745 142.09 80.7745C137.546 80.7745 134.014 79.2455 131.494 76.1873C129.012 73.0908 127.771 68.7712 127.771 63.2281C127.771 57.6852 129.012 53.3847 131.494 50.3264C134.014 47.2683 137.546 45.7391 142.09 45.7391C146.671 45.7391 150.203 47.2683 152.686 50.3264C155.205 53.3464 156.465 57.6469 156.465 63.2281C156.465 68.8093 155.205 73.1291 152.686 76.1873ZM191.393 65.7512C191.393 58.5644 188.052 54.9711 181.37 54.9711C179.193 54.9711 177.266 55.4489 175.585 56.4045C173.943 57.322 172.683 58.66 171.806 60.4184V56.806C171.806 56.2708 171.652 55.8503 171.347 55.5444C171.041 55.2387 170.64 55.0857 170.144 55.0857C169.609 55.0857 169.17 55.2577 168.826 55.6017C168.521 55.9076 168.368 56.3281 168.368 56.8633V81.9788C168.368 82.5139 168.521 82.9536 168.826 83.2976C169.17 83.6035 169.609 83.7563 170.144 83.7563C170.679 83.7563 171.098 83.6035 171.405 83.2976C171.71 82.9536 171.863 82.5139 171.863 81.9788V67.3568C171.863 64.5279 172.683 62.2725 174.325 60.5905C176.005 58.9085 178.219 58.0675 180.969 58.0675C183.374 58.0675 185.131 58.6983 186.238 59.9597C187.346 61.2212 187.898 63.2281 187.898 65.9805V81.9788C187.898 82.5139 188.052 82.9536 188.357 83.2976C188.7 83.6035 189.14 83.7563 189.674 83.7563C190.209 83.7563 190.629 83.6035 190.935 83.2976C191.24 82.9536 191.393 82.5139 191.393 81.9788V65.7512ZM200.931 83.2976C201.275 83.6035 201.714 83.7563 202.248 83.7563C202.745 83.7563 203.146 83.6035 203.451 83.2976C203.794 82.9917 203.966 82.5521 203.966 81.9788V44.5349C203.966 43.9616 203.794 43.5219 203.451 43.2161C203.146 42.9103 202.745 42.7573 202.248 42.7573C201.714 42.7573 201.275 42.9103 200.931 43.2161C200.626 43.5219 200.473 43.9616 200.473 44.5349V81.9788C200.473 82.5521 200.626 82.9917 200.931 83.2976ZM213.628 83.2976C213.972 83.6035 214.41 83.7563 214.945 83.7563C215.479 83.7563 215.9 83.6035 216.205 83.2976C216.51 82.9917 216.663 82.5521 216.663 81.9788V56.8633C216.663 56.2899 216.51 55.8503 216.205 55.5444C215.9 55.2387 215.479 55.0857 214.945 55.0857C214.41 55.0857 213.972 55.2387 213.628 55.5444C213.322 55.8503 213.17 56.2899 213.17 56.8633V81.9788C213.17 82.5521 213.322 82.9917 213.628 83.2976ZM213.055 47.9181C213.551 48.3768 214.181 48.6061 214.945 48.6061C215.708 48.6061 216.319 48.3768 216.778 47.9181C217.274 47.4593 217.522 46.8668 217.522 46.1405C217.522 45.376 217.274 44.7643 216.778 44.3056C216.319 43.8468 215.708 43.6175 214.945 43.6175C214.181 43.6175 213.551 43.8468 213.055 44.3056C212.597 44.7643 212.368 45.376 212.368 46.1405C212.368 46.8668 212.597 47.4593 213.055 47.9181ZM248.89 65.7512C248.89 58.5644 245.549 54.9711 238.867 54.9711C236.69 54.9711 234.762 55.4489 233.082 56.4045C231.44 57.322 230.18 58.66 229.303 60.4184V56.806C229.303 56.2708 229.15 55.8503 228.843 55.5444C228.538 55.2387 228.137 55.0857 227.641 55.0857C227.107 55.0857 226.667 55.2577 226.324 55.6017C226.019 55.9076 225.865 56.3281 225.865 56.8633V81.9788C225.865 82.5139 226.019 82.9536 226.324 83.2976C226.667 83.6035 227.107 83.7563 227.641 83.7563C228.176 83.7563 228.596 83.6035 228.9 83.2976C229.207 82.9536 229.36 82.5139 229.36 81.9788V67.3568C229.36 64.5279 230.18 62.2725 231.822 60.5905C233.502 58.9085 235.716 58.0675 238.465 58.0675C240.872 58.0675 242.628 58.6983 243.735 59.9597C244.842 61.2212 245.396 63.2281 245.396 65.9805V81.9788C245.396 82.5139 245.549 82.9536 245.854 83.2976C246.197 83.6035 246.637 83.7563 247.171 83.7563C247.706 83.7563 248.126 83.6035 248.431 83.2976C248.737 82.9536 248.89 82.5139 248.89 81.9788V65.7512ZM280.134 77.9648C279.905 77.6591 279.619 77.5061 279.275 77.5061C278.932 77.5061 278.34 77.7928 277.5 78.3663C276.24 79.0925 275.056 79.6851 273.95 80.1439C272.842 80.5643 271.467 80.7745 269.825 80.7745C266.694 80.7745 264.271 79.8571 262.551 78.0221C260.833 76.1873 259.917 73.5113 259.802 69.9944H278.875C279.562 69.9944 280.058 69.8415 280.363 69.5357C280.67 69.1916 280.822 68.6756 280.822 67.9875C280.822 63.9353 279.772 60.7625 277.672 58.4688C275.61 56.1369 272.784 54.9711 269.195 54.9711C266.637 54.9711 264.365 55.5827 262.379 56.806C260.432 57.9911 258.905 59.6921 257.798 61.9093C256.729 64.0883 256.195 66.6113 256.195 69.4784C256.195 73.9509 257.416 77.4679 259.86 80.0292C262.304 82.5904 265.645 83.8709 269.883 83.8709C272.938 83.8709 275.839 83.0491 278.588 81.4053C279.887 80.6025 280.535 79.7807 280.535 78.9396C280.535 78.5573 280.402 78.2324 280.134 77.9648ZM262.78 60.3611C264.385 58.6791 266.523 57.8381 269.195 57.8381C271.83 57.8381 273.872 58.6791 275.324 60.3611C276.774 62.0049 277.539 64.3559 277.615 67.4141H259.917C260.223 64.3941 261.177 62.0431 262.78 60.3611Z" fill="#FFFBFB"/>
</svg>
